<svg xmlns="http://www.w3.org/2000/svg" viewBox="0 0 55 55" shape-rendering="crispEdges"><path fill="#FFFFFF" d="M0 0h55v55H0z"/><path stroke="#111827" d="M3 3.5h7m2 0h2m1 0h2m1 0h1m3 0h1m1 0h1m1 0h1m4 0h1m1 0h1m2 0h1m2 0h2m2 0h1m1 0h7M3 4.5h1m5 0h1m1 0h2m5 0h1m1 0h2m4 0h2m4 0h3m2 0h3m1 0h3m1 0h1m5 0h1M3 5.5h1m1 0h3m1 0h1m2 0h1m5 0h4m1 0h1m1 0h1m3 0h1m1 0h5m1 0h1m1 0h1m2 0h2m1 0h1m1 0h3m1 0h1M3 6.5h1m1 0h3m1 0h1m3 0h2m3 0h1m1 0h1m5 0h2m1 0h1m4 0h1m2 0h1m2 0h1m1 0h1m2 0h1m1 0h3m1 0h1M3 7.5h1m1 0h3m1 0h1m8 0h1m2 0h1m1 0h7m2 0h1m2 0h2m1 0h2m5 0h1m1 0h3m1 0h1M3 8.5h1m5 0h1m1 0h1m1 0h1m2 0h2m2 0h1m1 0h1m2 0h1m3 0h1m3 0h2m1 0h4m1 0h1m3 0h1m5 0h1M3 9.5h7m1 0h1m1 0h1m1 0h1m1 0h1m1 0h1m1 0h1m1 0h1m1 0h1m1 0h1m1 0h1m1 0h1m1 0h1m1 0h1m1 0h1m1 0h1m1 0h1m1 0h1m1 0h7M11 10.5h1m5 0h1m2 0h3m2 0h1m3 0h3m1 0h1m1 0h3m2 0h4M7 11.5h4m1 0h3m2 0h1m1 0h1m1 0h1m1 0h8m2 0h1m2 0h1m2 0h3m1 0h1m1 0h2m3 0h1M3 12.5h1m1 0h4m1 0h4m2 0h1m2 0h1m1 0h1m1 0h1m1 0h2m1 0h2m1 0h3m2 0h1m1 0h2m1 0h2m2 0h2m1 0h1M3 13.5h1m2 0h2m1 0h1m1 0h2m5 0h1m1 0h2m5 0h3m1 0h2m1 0h3m1 0h1m2 0h9M3 14.5h1m1 0h1m1 0h1m2 0h1m1 0h4m2 0h1m1 0h2m1 0h3m3 0h2m3 0h2m2 0h4m1 0h2m2 0h3m1 0h1M3 15.5h1m1 0h1m1 0h6m2 0h4m1 0h1m1 0h1m1 0h1m1 0h2m1 0h1m1 0h2m3 0h1m2 0h1m3 0h3m1 0h1m1 0h1m1 0h1M5 16.5h1m1 0h1m3 0h3m1 0h4m3 0h5m1 0h2m1 0h2m2 0h1m2 0h1m2 0h1m2 0h2m1 0h4M3 17.5h2m1 0h1m2 0h1m2 0h1m4 0h2m1 0h2m1 0h1m4 0h2m1 0h3m4 0h1m2 0h2m1 0h3m1 0h1M3 18.5h2m6 0h1m1 0h3m3 0h3m1 0h1m1 0h3m1 0h4m5 0h5m1 0h1m2 0h1M3 19.5h1m1 0h1m2 0h4m2 0h1m1 0h2m1 0h1m1 0h1m2 0h1m1 0h1m1 0h1m8 0h4m1 0h1m1 0h2m1 0h1m2 0h2M3 20.5h1m2 0h1m3 0h1m1 0h2m1 0h6m1 0h1m2 0h1m1 0h1m1 0h3m1 0h2m1 0h2m7 0h1m1 0h1m1 0h2M3 21.5h1m1 0h1m1 0h1m1 0h1m1 0h4m2 0h11m3 0h2m3 0h3m4 0h1m2 0h4M3 22.5h3m2 0h1m1 0h1m3 0h1m1 0h1m2 0h1m2 0h1m1 0h2m1 0h1m1 0h1m1 0h1m2 0h1m1 0h9m1 0h2m1 0h3M5 23.5h1m1 0h1m1 0h3m2 0h1m2 0h1m1 0h1m3 0h1m2 0h2m2 0h5m1 0h4m3 0h1m1 0h1m1 0h3m1 0h1M10 24.5h1m1 0h2m3 0h1m1 0h1m5 0h1m1 0h3m3 0h1m2 0h1m1 0h1m1 0h3m1 0h4M7 25.5h6m7 0h1m1 0h9m1 0h5m2 0h1m1 0h1m1 0h6M4 26.5h1m2 0h1m3 0h1m1 0h3m2 0h2m1 0h1m3 0h1m3 0h1m3 0h2m3 0h6m3 0h1m1 0h3M5 27.5h1m1 0h1m1 0h1m1 0h1m1 0h3m3 0h1m2 0h1m2 0h1m1 0h1m1 0h2m1 0h8m3 0h1m1 0h1m1 0h1m1 0h3M3 28.5h2m1 0h2m3 0h1m5 0h2m1 0h2m2 0h2m3 0h1m2 0h1m2 0h1m2 0h2m1 0h3m3 0h1m3 0h1M3 29.5h2m2 0h5m3 0h4m1 0h2m1 0h1m1 0h6m2 0h1m2 0h1m1 0h1m1 0h9m1 0h1M5 30.5h2m1 0h1m2 0h1m1 0h6m1 0h1m1 0h2m2 0h1m6 0h7m5 0h2m2 0h1m1 0h1M4 31.5h1m1 0h1m2 0h3m3 0h2m1 0h2m1 0h1m1 0h2m1 0h1m1 0h2m1 0h2m2 0h7m1 0h5m1 0h3M3 32.5h1m1 0h2m1 0h1m3 0h2m6 0h1m1 0h2m2 0h1m3 0h1m1 0h3m1 0h1m2 0h1m1 0h1m1 0h3m3 0h1M3 33.5h3m1 0h1m1 0h2m6 0h1m1 0h1m2 0h1m1 0h5m1 0h2m8 0h4m3 0h1m1 0h1M4 34.5h2m1 0h1m5 0h1m1 0h4m4 0h4m1 0h1m1 0h1m2 0h1m3 0h2m1 0h1m3 0h4m1 0h1M3 35.5h2m4 0h2m1 0h2m2 0h1m1 0h5m2 0h2m2 0h1m1 0h2m5 0h1m1 0h2m2 0h1m1 0h1m2 0h2M4 36.5h3m1 0h1m4 0h2m1 0h1m1 0h1m1 0h1m2 0h1m1 0h2m1 0h4m1 0h2m1 0h1m4 0h3m1 0h1m1 0h3M4 37.5h1m4 0h2m3 0h1m1 0h1m2 0h3m1 0h1m1 0h1m1 0h1m3 0h6m2 0h1m1 0h1m1 0h2m2 0h1m1 0h1M6 38.5h3m2 0h1m4 0h1m2 0h1m2 0h1m1 0h1m1 0h3m1 0h3m1 0h3m2 0h3m2 0h4m1 0h1M3 39.5h2m2 0h1m1 0h4m4 0h2m1 0h3m3 0h1m3 0h1m1 0h5m1 0h3m3 0h1m1 0h1m2 0h1m1 0h1M4 40.5h4m3 0h1m1 0h2m1 0h3m2 0h1m3 0h1m1 0h1m1 0h1m1 0h1m1 0h1m2 0h1m1 0h2m1 0h1m1 0h2m2 0h1M4 41.5h1m3 0h3m5 0h1m2 0h1m1 0h1m1 0h2m2 0h1m1 0h4m2 0h2m4 0h1m4 0h2m1 0h1M4 42.5h3m3 0h2m2 0h2m1 0h1m2 0h1m1 0h1m2 0h1m5 0h1m3 0h3m1 0h1m3 0h9M3 43.5h3m3 0h1m3 0h2m1 0h1m2 0h1m2 0h1m2 0h6m3 0h3m1 0h2m1 0h1m1 0h6m1 0h2M11 44.5h2m1 0h3m2 0h1m1 0h3m1 0h1m3 0h2m1 0h2m4 0h1m1 0h4m3 0h2M3 45.5h7m1 0h1m2 0h3m1 0h3m4 0h1m1 0h1m1 0h3m2 0h2m1 0h1m1 0h2m2 0h1m1 0h1m1 0h3M3 46.5h1m5 0h1m1 0h1m1 0h1m1 0h2m2 0h3m3 0h1m3 0h1m1 0h1m1 0h1m1 0h9m3 0h1m1 0h1M3 47.5h1m1 0h3m1 0h1m1 0h2m1 0h2m1 0h6m1 0h7m2 0h1m1 0h3m1 0h1m3 0h9M3 48.5h1m1 0h3m1 0h1m2 0h6m1 0h2m1 0h2m3 0h1m1 0h1m1 0h1m1 0h4m2 0h1m1 0h1m3 0h2m1 0h1m2 0h1M3 49.5h1m1 0h3m1 0h1m3 0h1m1 0h1m1 0h1m1 0h2m2 0h3m1 0h1m2 0h1m2 0h2m3 0h1m2 0h1m3 0h2m2 0h1M3 50.5h1m5 0h1m2 0h2m1 0h2m2 0h1m2 0h3m1 0h2m4 0h4m2 0h2m2 0h1m3 0h5M3 51.5h7m3 0h1m2 0h2m1 0h1m1 0h1m2 0h1m1 0h2m1 0h4m2 0h1m1 0h4m1 0h2m2 0h2m1 0h3"/>
      <g id="center-letter-badge">
        <!-- Fondo blanco para tapar módulos del centro -->
        <rect x="21.5" y="21.5" width="12" height="12" rx="3" fill="#FFFFFF" stroke="#085E83" stroke-width="1.2" />
        <!-- Recuadro interno suave -->
        <rect x="22.3" y="22.3" width="10.4" height="10.4" rx="2.5" fill="#FAF8F5" />
        <!-- Letra del pilar -->
        <text x="27.5" y="30.65" text-anchor="middle" font-family="'Segoe UI', Arial, Helvetica, sans-serif" font-weight="900" font-size="9" fill="#085E83">
          D
        </text>
      </g>
    </svg>
